Coordinates
version=1
nRows=8
nColumns=40
inDegrees=yes

Units are S.I. units (second, meters, Newtons, ...)
If the header above contains a line with 'inDegrees', this indicates whether rotational values are in degrees (yes) or radians (no).

endheader
time	pelvis_tilt	pelvis_list	pelvis_rotation	pelvis_tx	pelvis_ty	pelvis_tz	hip_flexion_r	hip_adduction_r	hip_rotation_r	knee_angle_r	knee_angle_r_beta	ankle_angle_r	subtalar_angle_r	mtp_angle_r	hip_flexion_l	hip_adduction_l	hip_rotation_l	knee_angle_l	knee_angle_l_beta	ankle_angle_l	subtalar_angle_l	mtp_angle_l	lumbar_extension	lumbar_bending	lumbar_rotation	arm_flex_r	arm_add_r	arm_rot_r	elbow_flex_r	pro_sup_r	wrist_flex_r	wrist_dev_r	arm_flex_l	arm_add_l	arm_rot_l	elbow_flex_l	pro_sup_l	wrist_flex_l	wrist_dev_l
      0.31200000	     22.80407758	      0.22162553	      1.33999321	      0.55642398	      0.98294706	     -0.29301880	    -18.72511771	      2.33098138	     -4.93994431	     14.89584470	      0.25998153	     -5.45807847	      0.00000000	      0.00000000	    -11.59441799	     -4.52802825	     -1.81198120	     56.51100823	      0.98630316	    -14.65383174	      0.00000000	      0.00000000	    -35.32081980	      1.32964263	     -2.26127174	      5.71476243	    -17.32653127	     16.34903630	     40.28707708	     75.59132372	      0.00000000	      0.00000000	      4.74796606	    -22.42604548	     24.64440666	     46.99437882	     75.05483476	      0.00000000	      0.00000000
      0.31600000	     22.87639809	      0.22291424	      1.28358142	      0.56193285	      0.98358442	     -0.29258257	    -19.38912213	      2.36081192	     -5.10456108	     14.35543389	      0.25054959	     -5.77350853	      0.00000000	      0.00000000	    -11.09767440	     -4.54425313	     -1.99128149	     56.27708979	      0.98222051	    -13.53969393	      0.00000000	      0.00000000	    -35.38216654	      1.24110122	     -2.10503581	      5.85231063	    -17.41123251	     16.55974917	     40.45800112	     75.59225116	      0.00000000	      0.00000000	      4.56242790	    -22.51059700	     24.51121355	     47.05729468	     75.06433741	      0.00000000	      0.00000000
      0.32000000	     22.92545577	      0.17564082	      1.11230094	      0.56623153	      0.98411398	     -0.29214131	    -19.79111749	      2.37256288	     -5.09424211	     14.29182992	      0.24943949	     -5.75085430	      0.00000000	      0.00000000	    -10.48941305	     -4.43719425	     -1.97445536	     56.06661115	      0.97854697	    -13.49771120	      0.00000000	      0.00000000	    -35.56514800	      1.17693061	     -1.86838010	      6.21560961	    -17.46513346	     16.56902501	     40.62397738	     75.59197697	      0.00000000	      0.00000000	      4.59332503	    -22.56426440	     24.47480420	     47.01280730	     75.06132369	      0.00000000	      0.00000000
      0.32400000	     23.17718208	      0.12611822	      0.69793423	      0.57222406	      0.98498509	     -0.29150517	    -20.93578555	      2.39519848	     -4.17854481	     13.28585034	      0.23188183	     -6.11065944	      0.00000000	      0.00000000	    -10.40529271	     -4.43103386	     -2.54627800	     55.54237640	      0.96939734	    -12.63340568	      0.00000000	      0.00000000	    -35.76539474	      0.97478889	     -1.38560073	      6.29929377	    -17.70621086	     17.01109624	     40.94955728	     75.43593916	      0.00000000	      0.00000000	      4.25956973	    -22.50915647	     24.06082397	     47.10834756	     75.05044217	      0.00000000	      0.00000000
      0.32800000	     23.14888510	      0.14930654	      0.65951590	      0.57712755	      0.98532820	     -0.29109262	    -21.30565207	      2.38541272	     -4.34650541	     13.16020834	      0.22968897	     -6.06137178	      0.00000000	      0.00000000	     -9.72244144	     -4.40826220	     -2.64620899	     55.23510072	      0.96403437	    -12.41393557	      0.00000000	      0.00000000	    -35.81845312	      0.88027113	     -1.25253546	      6.54346464	    -17.75169337	     17.04649099	     41.08130407	     75.43288006	      0.00000000	      0.00000000	      4.25086273	    -22.57312668	     24.06772637	     47.05113226	     75.04910050	      0.00000000	      0.00000000
      0.33200000	     22.99683697	      0.22356224	      0.49695080	      0.58263465	      0.98548046	     -0.29078522	    -21.69065293	      2.26180343	     -4.40505658	     12.76774259	      0.22283915	     -6.05978909	      0.00000000	      0.00000000	     -9.05407788	     -4.21073240	     -2.76303408	     54.82533659	      0.95688264	    -11.84231529	      0.00000000	      0.00000000	    -35.62069399	      0.68034522	     -1.00837396	      6.56847917	    -17.88047032	     17.24417838	     41.34087401	     75.42082996	      0.00000000	      0.00000000	      4.11034031	    -22.58443571	     23.99161243	     46.96170721	     74.92202744	      0.00000000	      0.00000000
      0.33600000	     22.99039621	      0.28534373	      0.35892226	      0.58797366	      0.98572436	     -0.29057872	    -22.28544578	      2.17835445	     -4.18528290	     12.26509178	      0.21406623	     -6.18788412	      0.00000000	      0.00000000	     -8.51448602	     -4.04476075	     -2.85742569	     54.45435447	      0.95040778	    -11.06822408	      0.00000000	      0.00000000	    -35.60710995	      0.53163647	     -0.82513320	      6.71304439	    -18.02542197	     17.42644923	     41.60769418	     75.34190695	      0.00000000	      0.00000000	      3.98177632	    -22.59965636	     23.92115400	     46.89809941	     74.84208525	      0.00000000	      0.00000000
      0.34000000	     22.98402939	      0.22444982	      0.29565655	      0.59269041	      0.98599726	     -0.29012384	    -22.64146124	      2.24844835	     -4.31289728	     12.16924194	      0.21239334	     -6.13358299	      0.00000000	      0.00000000	     -7.87991798	     -4.04602316	     -2.89092848	     54.07739407	      0.94382858	    -10.91932739	      0.00000000	      0.00000000	    -35.68944664	      0.49795075	     -0.60526851	      6.97360091	    -18.05764166	     17.43639800	     41.75804648	     75.32855820	      0.00000000	      0.00000000	      3.96150180	    -22.66835874	     23.86622954	     46.90586187	     74.79354634	      0.00000000	      0.00000000
